<?xml version="1.0" standalone="no"?>
<!DOCTYPE svg PUBLIC "-//W3C//DTD SVG 20010904//EN"
 "http://www.w3.org/TR/2001/REC-SVG-20010904/DTD/svg10.dtd">
<svg version="1.0" xmlns="http://www.w3.org/2000/svg"
 width="1024.000000pt" height="1024.000000pt" viewBox="0 0 1024.000000 1024.000000"
 preserveAspectRatio="xMidYMid meet">
<metadata>
Created by potrace 1.11, written by Peter Selinger 2001-2013
</metadata>
<g transform="translate(0.000000,1024.000000) scale(0.100000,-0.100000)"
fill="#000000" stroke="none">
<path d="M4992 9170 c-53 -38 -87 -92 -96 -152 -8 -52 -9 -53 -97 -63 -43 -5
-71 -1 -118 15 -34 11 -83 23 -109 26 -26 3 -74 12 -107 19 -37 9 -101 13
-165 11 -89 -2 -113 -6 -160 -29 -106 -50 -242 -159 -290 -231 -51 -77 -74
-228 -46 -304 15 -42 70 -99 113 -117 46 -19 44 -46 -18 -220 -11 -30 -33
-133 -50 -235 -26 -154 38 -560 114 -720 29 -63 161 -261 200 -302 34 -36 131
-118 140 -118 3 0 29 -16 58 -35 30 -19 58 -35 63 -35 5 0 17 -6 25 -13 9 -7
50 -23 91 -36 41 -12 83 -27 93 -32 21 -11 81 -25 182 -40 67 -11 174 -8 279
7 l49 7 -5 -41 c-3 -22 -19 -78 -36 -124 -17 -46 -40 -119 -52 -163 -12 -44
-27 -96 -34 -115 -20 -53 -46 -145 -46 -163 0 -9 -10 -38 -22 -64 -37 -84 -46
-106 -67 -183 -12 -41 -27 -88 -32 -105 -6 -16 -14 -46 -19 -65 -4 -19 -19
-71 -33 -115 -14 -44 -29 -93 -32 -110 -4 -16 -12 -46 -20 -65 -7 -19 -22 -69
-34 -110 -12 -41 -29 -100 -38 -130 -9 -30 -31 -88 -50 -128 -18 -40 -33 -78
-33 -85 0 -7 -22 -67 -50 -134 -76 -187 -77 -249 -6 -273 45 -14 82 7 92 53 4
18 12 45 19 62 13 30 21 51 64 170 13 33 27 69 33 79 22 41 85 226 123 361 8
28 24 82 35 120 12 39 26 90 32 115 6 25 14 50 19 55 8 10 15 37 44 155 8 30
25 87 40 125 14 39 30 84 35 100 14 49 39 119 49 136 5 9 13 33 16 53 8 42 21
54 29 29 9 -30 -2 -584 -13 -658 -6 -38 -13 -158 -15 -265 -2 -107 -8 -208
-14 -225 -18 -56 -51 -259 -56 -350 -5 -90 -12 -132 -47 -255 -16 -60 -24
-110 -50 -335 -5 -44 -16 -102 -24 -129 -8 -27 -15 -70 -15 -95 0 -25 -6 -77
-14 -116 -8 -38 -25 -126 -36 -195 -12 -69 -26 -138 -31 -155 -4 -16 -13 -67
-18 -113 -6 -46 -15 -100 -20 -120 -5 -20 -12 -77 -15 -127 -7 -98 -29 -238
-51 -325 -8 -30 -24 -109 -35 -175 -12 -66 -26 -138 -33 -160 -6 -22 -14 -67
-17 -100 -4 -33 -12 -80 -18 -105 -6 -25 -16 -74 -21 -110 -14 -87 -29 -162
-47 -237 -8 -34 -14 -81 -14 -105 0 -24 -7 -70 -15 -103 -22 -85 -31 -240 -15
-260 18 -22 77 -36 106 -25 32 13 45 47 55 155 5 50 15 119 23 155 8 36 20 94
27 130 6 36 18 97 25 135 8 39 19 104 24 145 11 72 26 152 55 290 8 36 19 97
25 135 16 111 39 236 45 246 10 16 35 172 45 284 6 61 17 142 24 180 8 39 24
135 36 215 13 80 28 174 35 210 18 92 33 198 45 320 6 58 15 119 20 135 5 17
12 71 15 120 5 84 19 157 51 280 7 28 16 76 19 108 4 31 11 59 15 62 10 6 20
-71 20 -148 0 -32 7 -96 15 -141 14 -80 41 -238 71 -426 17 -106 29 -167 49
-255 7 -33 20 -94 29 -135 17 -83 50 -233 70 -325 8 -33 30 -118 49 -190 46
-168 52 -194 72 -290 9 -44 25 -109 36 -145 11 -36 19 -74 19 -85 0 -10 6 -37
14 -60 8 -22 24 -85 36 -140 24 -107 44 -179 65 -235 7 -19 18 -55 24 -80 7
-25 19 -67 28 -95 32 -104 55 -192 67 -260 25 -134 70 -296 94 -333 12 -19 23
-22 73 -22 55 0 60 2 69 26 14 35 12 72 -6 119 -9 22 -19 60 -24 85 -4 25 -14
72 -23 105 -8 33 -22 96 -32 140 -10 44 -23 96 -30 115 -15 43 -76 235 -98
310 -9 30 -26 96 -37 145 -21 91 -40 162 -65 245 -7 25 -17 63 -20 85 -4 22
-13 63 -20 90 -8 28 -18 70 -24 95 -5 25 -17 72 -26 105 -9 33 -23 87 -30 120
-8 33 -24 92 -36 130 -12 39 -26 95 -31 125 -15 87 -37 201 -49 250 -33 133
-53 234 -74 365 -9 55 -21 120 -26 145 -44 194 -86 448 -94 565 -3 50 -13 115
-21 145 -9 30 -22 78 -29 105 -52 186 -51 153 -24 465 23 280 32 427 33 595 1
113 6 187 13 200 9 16 13 17 16 5 24 -75 36 -123 41 -165 4 -27 13 -70 21 -95
20 -65 47 -169 55 -215 4 -22 18 -76 30 -120 23 -86 40 -152 63 -255 8 -36 20
-85 25 -110 34 -144 52 -238 52 -263 0 -16 4 -36 10 -46 5 -10 14 -52 20 -92
14 -98 39 -175 66 -200 l21 -20 52 22 c61 27 71 50 47 109 -9 22 -16 54 -16
71 0 17 -7 58 -15 92 -8 34 -24 107 -35 162 -12 55 -33 147 -47 205 -14 58
-31 132 -39 165 -18 80 -34 144 -45 180 -6 17 -21 75 -35 130 -13 55 -29 118
-35 140 -20 79 -40 161 -49 200 -4 22 -20 76 -35 120 -14 44 -32 112 -40 150
-16 83 -39 170 -53 205 -6 14 -20 49 -31 77 -12 29 -33 69 -46 89 -14 21 -25
51 -25 69 0 37 28 66 121 128 65 43 184 158 220 212 37 56 81 126 96 154 132
243 159 358 150 632 l-5 176 43 -4 c24 -3 52 0 66 7 71 38 160 136 195 216 27
61 24 202 -6 282 -12 34 -27 65 -31 68 -5 3 -9 12 -9 21 0 29 -90 152 -155
211 -43 39 -98 76 -168 110 -58 29 -110 52 -116 52 -6 0 -35 13 -66 30 -51 28
-176 62 -340 93 -56 10 -71 17 -73 32 -6 31 -42 108 -61 129 -23 27 -86 56
-119 56 -16 0 -47 -13 -70 -30z m98 -124 c6 -8 10 -25 8 -38 -3 -20 -9 -23
-43 -23 -46 0 -58 24 -29 56 20 23 47 25 64 5z m-439 -196 c43 -11 91 -11 254
0 374 24 499 2 760 -136 87 -45 106 -54 121 -54 30 0 112 -50 157 -96 26 -26
47 -51 47 -55 0 -4 13 -27 28 -51 46 -71 73 -150 73 -215 1 -65 -11 -87 -88
-178 -34 -40 -46 -47 -77 -48 -40 -1 -50 8 -65 60 -10 35 -90 144 -122 166
-11 8 -39 32 -62 53 -46 43 -55 50 -172 128 -80 53 -165 96 -192 96 -8 0 -28
7 -46 16 -42 22 -349 22 -470 0 -99 -18 -296 -34 -392 -30 -38 1 -99 9 -135
18 -58 13 -71 14 -113 1 -26 -8 -62 -26 -81 -40 -18 -14 -38 -25 -45 -25 -21
0 -88 39 -94 54 -3 8 -2 51 2 96 8 77 11 84 47 122 37 38 98 83 146 109 13 7
50 15 83 18 103 10 380 4 436 -9z m601 -451 c124 -41 215 -98 370 -233 75 -65
87 -103 119 -376 18 -152 -4 -349 -53 -480 -29 -78 -123 -229 -188 -304 -82
-93 -240 -216 -280 -216 -6 0 -32 -10 -58 -22 -43 -21 -62 -23 -237 -23 -207
0 -179 -5 -393 74 -92 34 -220 119 -283 188 -60 66 -145 202 -175 283 -56 148
-81 274 -90 460 -5 100 -3 130 19 225 13 61 30 126 37 145 34 93 44 119 68
168 14 31 36 59 49 65 13 5 23 14 23 20 0 10 52 5 116 -12 72 -19 319 2 569
49 22 4 104 8 182 9 120 1 153 -2 205 -20z"/>
</g>
</svg>
